<svg width="152" height="128" viewBox="0 0 152 128" fill="none" xmlns="http://www.w3.org/2000/svg">
<path d="M47.3275 70.6425L96.7165 53.5611L67.7683 42.4503L64.7161 50.4027L57.2295 47.5293L62.0569 34.9518L107.842 52.5247L105.568 58.4474L57.2538 75.2159L87.3666 86.7737L90.304 79.1207L97.7906 81.9942L93.0398 94.372L45.2586 76.0328L47.3275 70.6425ZM107.799 60.7923L109.804 55.5683L111.135 56.0792L108.913 61.8688L66.9042 76.6293L64.8412 75.8375L107.799 60.7923ZM58.3319 50.6247L66.2178 53.6514L69.2701 45.699L90.3324 53.783L88.3498 54.4727L70.1157 47.4742L67.0635 55.4267L57.8466 51.8891L58.3319 50.6247ZM94.5415 97.6207L99.4711 84.777L100.802 85.2879L95.3872 99.3959L45.8757 80.3927L46.361 79.1283L94.5415 97.6207Z" fill="white"/>
<path d="M120.104 103.276H55.5512C55.3314 103.276 55.1206 103.19 54.9659 103.034L31.2417 79.3096C31.086 79.1539 30.9993 78.9441 30.9993 78.7244V35.6907C30.9993 35.3557 31.2013 35.0542 31.5106 34.9262C31.82 34.7981 32.1757 34.869 32.4131 35.1055L48.0399 50.7322L58.7138 55.956L53.6358 45.5804C53.5147 45.54 53.4033 45.472 53.3117 45.3804L40.0702 32.1389C39.8337 31.9024 39.7628 31.5467 39.8909 31.2374C40.0189 30.928 40.3204 30.7261 40.6554 30.7261H120.105C120.562 30.7261 120.932 31.0965 120.932 31.5537V102.45C120.931 102.906 120.561 103.277 120.104 103.277L120.104 103.276ZM55.8942 101.621H119.277V32.3792H42.6527L54.2419 43.9685C54.5296 43.9931 54.7867 44.1665 54.9148 44.4295L61.2596 57.3951C61.4153 57.7124 61.3513 58.0946 61.102 58.3439C60.8518 58.5942 60.4715 58.6582 60.1532 58.5025L47.3599 52.2414H47.2762C46.8426 52.2414 46.487 51.9084 46.4515 51.4838L32.6544 37.6877V78.3807L55.8942 101.621Z" fill="white"/>
<path d="M71.277 119C71.2652 119 71.2534 119 71.2415 118.999L19.3802 116.792C18.9526 116.774 18.6087 116.433 18.589 116.005L16.1062 63.8661C16.0895 63.5243 16.2856 63.208 16.5979 63.0701C16.9112 62.9321 17.2767 63.0001 17.5181 63.2415L71.8083 117.532C71.9925 117.683 72.1108 117.914 72.1108 118.171C72.1108 118.628 71.7403 118.999 71.2832 118.999H71.2773L71.277 119ZM20.2051 115.17L69.1886 117.255L17.8595 65.9259L20.2051 115.17Z" fill="white"/>
<path d="M48.3805 106.863C48.3677 106.863 48.3559 106.863 48.3431 106.862L30.1359 106.034C29.7083 106.015 29.3664 105.673 29.3467 105.245L28.5191 87.038C28.5034 86.6971 28.6994 86.3808 29.0117 86.2429C29.3251 86.105 29.6896 86.1729 29.931 86.4153L48.9115 105.396C49.0957 105.548 49.2139 105.778 49.2139 106.035C49.2139 106.492 48.8435 106.863 48.3864 106.863C48.3844 106.862 48.3824 106.862 48.3805 106.863L48.3805 106.863ZM30.9655 104.416L46.2859 105.112L30.2689 89.0952L30.9655 104.416Z" fill="white"/>
<path d="M139.417 113.759H124.52C124.063 113.759 123.692 113.388 123.692 112.931V53.3444C123.692 52.8873 124.063 52.5168 124.52 52.5168H139.417C139.874 52.5168 140.244 52.8873 140.244 53.3444V112.931C140.244 113.388 139.874 113.759 139.417 113.759ZM125.348 112.104H138.589V54.1714H125.348V112.104Z" fill="white"/>
<path d="M139.417 59.1378H130.313C129.856 59.1378 129.485 58.7674 129.485 58.3103C129.485 57.8531 129.856 57.4827 130.313 57.4827H139.417C139.874 57.4827 140.244 57.8531 140.244 58.3103C140.244 58.7674 139.874 59.1378 139.417 59.1378Z" fill="white"/>
<path d="M139.417 64.1044H133.072C132.615 64.1044 132.244 63.7339 132.244 63.2768C132.244 62.8197 132.615 62.4492 133.072 62.4492H139.417C139.874 62.4492 140.244 62.8197 140.244 63.2768C140.244 63.7339 139.874 64.1044 139.417 64.1044Z" fill="white"/>
<path d="M139.417 69.0705H130.313C129.856 69.0705 129.485 68.7 129.485 68.2429C129.485 67.7857 129.856 67.4153 130.313 67.4153H139.417C139.874 67.4153 140.244 67.7857 140.244 68.2429C140.244 68.7 139.874 69.0705 139.417 69.0705Z" fill="white"/>
<path d="M139.417 73.7594H133.072C132.615 73.7594 132.244 73.3889 132.244 72.9318C132.244 72.4747 132.615 72.1042 133.072 72.1042H139.417C139.874 72.1042 140.244 72.4747 140.244 72.9318C140.244 73.3889 139.874 73.7594 139.417 73.7594Z" fill="white"/>
<path d="M139.417 78.7252H130.313C129.856 78.7252 129.485 78.3548 129.485 77.8976C129.485 77.4405 129.856 77.0701 130.313 77.0701H139.417C139.874 77.0701 140.244 77.4405 140.244 77.8976C140.244 78.3548 139.874 78.7252 139.417 78.7252Z" fill="white"/>
<path d="M139.417 83.6891H133.072C132.615 83.6891 132.244 83.3187 132.244 82.8615C132.244 82.4044 132.615 82.0339 133.072 82.0339H139.417C139.874 82.0339 140.244 82.4044 140.244 82.8615C140.244 83.3187 139.874 83.6891 139.417 83.6891Z" fill="white"/>
<path d="M139.417 88.6549H130.313C129.856 88.6549 129.485 88.2844 129.485 87.8273C129.485 87.3702 129.856 86.9998 130.313 86.9998H139.417C139.874 86.9998 140.244 87.3702 140.244 87.8273C140.244 88.2844 139.874 88.6549 139.417 88.6549Z" fill="white"/>
<path d="M139.417 93.6215H133.072C132.615 93.6215 132.244 93.251 132.244 92.7939C132.244 92.3368 132.615 91.9663 133.072 91.9663H139.417C139.874 91.9663 140.244 92.3368 140.244 92.7939C140.244 93.251 139.874 93.6215 139.417 93.6215Z" fill="white"/>
<path d="M139.417 98.5875H130.313C129.856 98.5875 129.485 98.2171 129.485 97.76C129.485 97.3028 129.856 96.9324 130.313 96.9324H139.417C139.874 96.9324 140.244 97.3028 140.244 97.76C140.244 98.2171 139.874 98.5875 139.417 98.5875Z" fill="white"/>
<path d="M139.417 103.277H133.072C132.615 103.277 132.244 102.906 132.244 102.449C132.244 101.992 132.615 101.621 133.072 101.621H139.417C139.874 101.621 140.244 101.992 140.244 102.449C140.244 102.906 139.874 103.277 139.417 103.277Z" fill="white"/>
<path d="M139.417 108.243H130.313C129.856 108.243 129.485 107.872 129.485 107.415C129.485 106.958 129.856 106.587 130.313 106.587H139.417C139.874 106.587 140.244 106.958 140.244 107.415C140.244 107.872 139.874 108.243 139.417 108.243Z" fill="white"/>
<path d="M60.5173 58.5857C60.3942 58.5857 60.2701 58.5582 60.1538 58.502L47.1882 52.1572C47.1064 52.1168 47.0316 52.0636 46.9665 51.9985L17.7242 22.7562C17.4011 22.4331 17.4011 21.9089 17.7242 21.5858L24.345 14.965C24.6681 14.6419 25.1923 14.6419 25.5154 14.965L54.7577 44.2073C54.8228 44.2724 54.876 44.3462 54.9164 44.429L61.2218 57.3149C61.3036 57.443 61.3509 57.5957 61.3509 57.7582C61.3509 58.2174 60.9824 58.5936 60.5173 58.5857ZM48.0393 50.7304L58.7132 55.9541L53.4895 45.2802L24.9307 16.7214L19.4805 22.1716L48.0393 50.7304Z" fill="white"/>
<path d="M18.3109 22.9996C18.1169 22.9996 17.9228 22.9316 17.7661 22.7947L15.5592 20.8636C15.3868 20.7129 15.2843 20.4971 15.2774 20.2685C15.2695 20.0399 15.3572 19.8173 15.5198 19.6557L22.1405 13.0349C22.4489 12.7275 22.9425 12.7108 23.2706 12.9975L25.4775 14.9285C25.6499 15.0793 25.7524 15.295 25.7593 15.5236C25.7672 15.7522 25.6795 15.9749 25.5169 16.1365L18.8962 22.7572C18.7356 22.9178 18.5237 22.9996 18.3109 22.9996V22.9996ZM17.3149 20.2004L18.2735 21.0389L23.721 15.5914L22.7623 14.753L17.3149 20.2004Z" fill="white"/>
<path d="M16.104 21.0688H16.0824C15.8558 21.0628 15.641 20.9643 15.4892 20.7949L13.0202 18.052C11.3286 16.3416 11.3345 13.3584 13.037 11.656L14.4163 10.2766C15.2272 9.46477 16.3966 8.99976 17.6223 8.99976C18.8479 8.99976 20.0164 9.4648 20.8282 10.2766C20.8391 10.2865 20.8489 10.2973 20.8588 10.3081L23.3416 13.0669C23.6362 13.394 23.6234 13.8945 23.311 14.2058L16.6903 20.8266C16.5336 20.9813 16.3238 21.069 16.1041 21.069L16.104 21.0688ZM17.6213 10.6549C16.8311 10.6549 16.0892 10.9435 15.5858 11.447L14.2065 12.8263C13.1414 13.8914 13.1414 15.8323 14.2065 16.8974C14.2173 16.9073 14.2271 16.9181 14.237 16.9289L16.1365 19.0393L21.585 13.5909L19.6431 11.4332C19.1396 10.9376 18.4046 10.6549 17.6214 10.6549H17.6213Z" fill="white"/>
<path d="M47.5532 52.2423C47.3473 52.2423 47.1414 52.1655 46.9808 52.0118C46.6508 51.6955 46.6399 51.1714 46.9562 50.8413L53.301 44.2206C53.6173 43.8905 54.1414 43.8787 54.4715 44.1959C54.8015 44.5122 54.8124 45.0363 54.4961 45.3664L48.1513 51.9872C47.9887 52.1566 47.771 52.2423 47.5532 52.2423V52.2423Z" fill="white"/>
<path d="M51.6896 47.8285C51.4778 47.8285 51.266 47.7478 51.1044 47.5862L22.1395 18.6213C21.8164 18.2982 21.8164 17.774 22.1395 17.4509C22.4627 17.1277 22.9869 17.1277 23.31 17.4509L52.2749 46.4157C52.598 46.7389 52.598 47.263 52.2749 47.5862C52.1133 47.7478 51.9015 47.8285 51.6896 47.8285V47.8285Z" fill="white"/>
<path d="M49.7602 50.0354C49.5484 50.0354 49.3365 49.9546 49.175 49.7931L19.9326 20.5507C19.6095 20.2276 19.6095 19.7034 19.9326 19.3803C20.2558 19.0572 20.7799 19.0572 21.1031 19.3803L50.3454 48.6226C50.6686 48.9458 50.6686 49.4699 50.3454 49.7931C50.1838 49.9546 49.972 50.0354 49.7602 50.0354Z" fill="white"/>
<path d="M125.07 45.0691C124.613 45.0691 124.243 44.6987 124.243 44.2415V27.4137H86.7251C86.268 27.4137 85.8976 27.0432 85.8976 26.5861C85.8976 26.129 86.268 25.7585 86.7251 25.7585H125.07C125.527 25.7585 125.898 26.129 125.898 26.5861V44.2415C125.898 44.6986 125.527 45.0691 125.07 45.0691L125.07 45.0691Z" fill="white"/>
</svg>
