<svg width="93" height="80" viewBox="0 0 93 80" fill="none" xmlns="http://www.w3.org/2000/svg">
<g clip-path="url(#clip0_201_2)">
<path d="M48.0188 15.0616C47.6285 15.8866 46.6255 16.2435 45.8004 15.8532C44.9645 15.452 44.6076 14.4598 45.0089 13.624C47.1377 9.16574 50.4819 5.82152 54.484 3.54719C58.7978 1.08396 63.8588 -0.120483 68.9632 -0.120483C74.9378 -0.120483 81.2133 2.77747 85.8505 7.41451C90.1643 11.7174 93.0955 17.5582 93.0955 24.0118C93.0955 38.2352 85.0923 50.1728 75.3055 59.5818C65.6749 68.8446 54.3277 75.6224 47.3391 79.6579C46.8151 79.9588 46.1798 79.9479 45.6783 79.6579C38.7006 75.6341 27.3642 68.8456 17.7219 59.5818C7.94599 50.1736 -0.0681152 38.2358 -0.0681152 24.0118C-0.0681152 17.5574 2.86328 11.7166 7.17687 7.41451C11.8141 2.77727 18.0895 -0.120483 24.0642 -0.120483C27.8656 -0.120483 31.6436 0.548202 35.1106 1.90802C38.4214 3.20107 41.4421 5.12943 43.9161 7.69278C44.5514 8.35058 44.5288 9.40958 43.8718 10.0447C43.2031 10.6909 42.1441 10.6691 41.5089 10.0004C39.3908 7.79297 36.7713 6.13211 33.8961 5.01803C30.8419 3.8144 27.4751 3.22349 24.0648 3.22349C18.9704 3.22349 13.576 5.74265 9.54044 9.77816C5.81763 13.501 3.27577 18.5168 3.27577 24.0125C3.27577 34 7.64549 42.8507 13.7764 50.4084L27.888 25.9851L27.8989 25.9517L27.9206 25.9066L27.9432 25.884C27.9657 25.8397 27.9992 25.7946 28.0326 25.7503H28.0435L28.1103 25.6726C28.1772 25.6057 28.2441 25.5497 28.3335 25.5054L40.8961 18.2487C42.6572 17.2231 43.7721 16.811 44.6748 17.2791C45.6444 17.7697 45.8901 18.8956 45.8901 20.935L45.8792 35.6266V35.7697L45.8683 35.7806V35.8459L45.8575 35.8568V35.8894L45.8466 35.9003V35.9337L45.8357 35.9446V35.9664L45.8248 35.9889V35.9998L45.8139 36.0107V36.0216L45.803 36.0325V36.0651L45.7921 36.076V36.0869H45.7813V36.1087L45.7595 36.1304V36.153L45.7486 36.1639L45.7268 36.209L29.1514 64.9118C35.5389 69.7605 41.8812 73.5836 46.5176 76.2817C53.4065 72.2914 64.0067 65.8145 73.0011 57.1762C82.2087 48.3145 89.7546 37.134 89.7546 24.0027C89.7546 18.5072 87.2128 13.4911 83.49 9.76832C79.4547 5.733 74.06 3.21364 68.9656 3.21364C64.407 3.21364 59.9142 4.27264 56.1245 6.43505C52.7027 8.37422 49.8374 11.2395 48.0211 15.0517L48.0188 15.0616ZM39.1346 36.8436L32.4245 48.4692C32.1127 48.9933 31.4324 49.183 30.9083 48.8813C30.3734 48.5695 30.1945 47.8892 30.4962 47.3651L37.2623 35.6391L36.103 32.3174L32.6477 32.9636L22.493 50.5529C22.1921 51.077 21.5118 51.2667 20.9768 50.9541C20.4419 50.6532 20.2631 49.962 20.5756 49.4379L30.6634 31.9596L28.8689 28.7275L15.3033 52.2252C16.8078 53.9529 18.3909 55.6029 20.0409 57.1859C22.4038 59.4602 24.8787 61.5773 27.3754 63.5509L42.8359 36.7868L39.1348 36.8427L39.1346 36.8436ZM43.6598 23.4225L40.0256 21.3154L30.3835 26.8887L32.524 30.7236L36.6262 29.9655C37.1721 29.8652 37.6961 30.177 37.8749 30.6902L39.2683 34.6254L43.6597 34.5476L43.6598 23.4225Z" fill="white"/>
</g>
<defs>
<clipPath id="clip0_201_2">
<rect width="93" height="80" fill="white"/>
</clipPath>
</defs>
</svg>
