<svg width="90" height="90" viewBox="0 0 90 90" fill="none" xmlns="http://www.w3.org/2000/svg">
<g clip-path="url(#clip0_102_7)">
<path d="M89.9905 17.0138C89.9905 13.8695 87.6783 11.2745 84.6682 10.7919L88.9486 6.16448C90.2612 4.75692 90.2188 2.58595 88.8557 1.22087C87.4936 -0.138215 85.3247 -0.174558 83.9242 1.13201L73.5937 10.6909H6.2314C2.74387 10.6909 -0.0935669 13.5273 -0.0935669 17.0138V74.6337C-0.0935669 78.1191 2.74464 80.9555 6.2314 80.9555H29.1976L25.5819 86.5736H17.6476C16.652 86.5736 15.8462 87.3793 15.8462 88.3749C15.8462 89.3705 16.652 90.1763 17.6476 90.1763H72.256C73.2516 90.1763 74.0574 89.3705 74.0574 88.3749C74.0574 87.3793 73.2516 86.5736 72.256 86.5736H64.3217L60.7049 80.9555H83.6711C87.1566 80.9555 89.991 78.1191 89.991 74.6337V69.171C89.991 69.168 89.993 69.165 89.993 69.1619C89.993 69.1589 89.991 69.1559 89.991 69.1528L89.9905 17.0138ZM29.8659 86.5732L33.4817 80.957H56.4195L60.0353 86.5732H29.8659ZM86.3071 3.71451L50.3486 42.5887C49.5782 41.3154 48.5564 40.3249 47.5345 39.705L75.2238 14.0014C75.4247 13.8772 75.5924 13.7217 75.7307 13.5308L86.3071 3.71451ZM43.005 41.9683C43.9036 41.9683 44.7276 42.2733 45.5091 42.6822C46.5753 43.2406 47.8052 44.6855 47.9829 46.5373C48.1677 48.4406 47.1539 50.334 45.0516 52.016C43.5683 53.2014 41.7934 53.7063 39.9141 54.2404C38.2622 54.7099 36.4801 55.2168 34.9139 56.2619C34.6575 53.563 34.715 49.8501 36.3972 47.2936C39.0871 43.1981 41.1984 41.9682 43.0047 41.9682L43.005 41.9683ZM6.2297 14.2971H69.6965L43.6253 38.4213C38.2304 37.9781 34.6932 43.3236 33.3858 45.3147C29.5901 51.0822 31.8763 60.2172 31.9742 60.6039C32.157 61.3177 32.7588 61.8499 33.4908 61.9428C33.5686 61.9518 33.6443 61.9569 33.719 61.9569C34.3683 61.9569 34.9751 61.6045 35.2952 61.0279C36.3756 59.0751 38.1275 58.4925 40.8951 57.7058C42.9378 57.1273 45.2512 56.4689 47.3007 54.8291C51.0095 51.8616 51.701 48.7598 51.5829 46.5585L81.4254 14.2964H83.667C85.1645 14.2964 86.3832 15.5162 86.3832 17.0157V67.3617L3.51161 67.3627V17.0168C3.51161 15.5173 4.73237 14.2967 6.23272 14.2967L6.2297 14.2971ZM83.6679 77.3555H6.2297C4.72924 77.3555 3.50754 76.1357 3.50754 74.6372V70.9669H86.3844V74.6372C86.3844 76.1357 85.1656 77.3555 83.6681 77.3555H83.6679Z" fill="white"/>
</g>
<defs>
<clipPath id="clip0_102_7">
<rect width="90" height="89.1818" fill="white"/>
</clipPath>
</defs>
</svg>
